<?xml version="1.0" encoding="UTF-8"?>
<svg version="1.1" xmlns="http://www.w3.org/2000/svg" width="1536" height="1024">
<path d="M0 0 C11.02871678 7.64555756 20.72778107 17.20176947 30.47265625 26.375 C33.56749158 29.28333734 36.72520176 32.10536217 39.94140625 34.87890625 C46.5315419 40.58852273 52.93260831 46.51613059 59.3527832 52.4152832 C62.46811264 55.27544568 65.60067406 58.11484644 68.75 60.9375 C72.63620803 64.42448281 76.48084444 67.95340803 80.3125 71.5 C87.04827391 77.73231168 93.82778157 83.91208719 100.75 89.9375 C104.94553221 93.59057956 109.04623553 97.34505549 113.15625 101.09375 C115.35602741 103.08648953 117.57205218 105.0533814 119.8125 107 C123.99257076 110.63186476 128.07345315 114.36958192 132.1640625 118.1015625 C134.31821307 120.05237143 136.48968469 121.97393612 138.6875 123.875 C142.83563973 127.47912141 146.85688238 131.21575625 150.88745117 134.94995117 C155.81877051 139.51582899 160.80539408 144.01736999 165.8125 148.5 C171.21588021 153.34471085 176.59604324 158.21219933 181.9375 163.125 C185.85229934 166.72404993 189.80277769 170.2737263 193.8203125 173.7578125 C196.17270635 175.81500399 198.49284966 177.90596915 200.8125 180 C203.77119751 182.67048344 206.74176472 185.32298058 209.75 187.9375 C212.97809512 190.74822525 216.14988443 193.615799 219.3125 196.5 C227.22251432 203.92396854 227.22251432 203.92396854 235.8125 210.5 C235.80881283 209.53608432 235.80512566 208.57216864 235.80132675 207.57904339 C235.71243859 184.10017057 235.64675432 160.62131963 235.60525131 137.14231396 C235.58464612 125.78793029 235.55656453 114.43365792 235.51074219 103.0793457 C235.47081194 93.18029701 235.44505234 83.28132896 235.43614602 73.38220197 C235.43094178 68.14305309 235.4187524 62.90413484 235.38957977 57.66506004 C235.36231293 52.72797372 235.35407773 47.79121179 235.36006927 42.85405731 C235.35897407 41.04775794 235.35108762 39.24144706 235.3356781 37.43521309 C235.23535425 25.06278489 236.0047258 14.74770364 243.8125 4.5 C244.6478125 3.2625 244.6478125 3.2625 245.5 2 C251.22777498 -4.19218917 258.43583994 -8.28733781 266.9140625 -8.90625 C279.14647812 -9.32647833 287.94271827 -7.24570058 297.25 1.25 C302.97871287 7.45610561 306.92936774 15.22496244 306.94392776 23.75369263 C306.94776891 24.60072156 306.95161005 25.44775049 306.9555676 26.32044697 C306.95470112 27.2461106 306.95383463 28.17177423 306.95294189 29.12548828 C306.95739858 30.60636948 306.95739858 30.60636948 306.9619453 32.11716747 C306.97063678 35.43489101 306.97214095 38.75257847 306.97363281 42.0703125 C306.97826078 44.4454913 306.98328541 46.82066937 306.98867798 49.19584656 C307.00180871 55.65695185 307.00828549 62.11805024 307.01268864 68.57916641 C307.01545339 72.61693706 307.01969128 76.65470533 307.02419281 80.69247437 C307.0363867 91.88050689 307.04668438 103.06853751 307.0500679 114.25657654 C307.05028747 114.97254684 307.05050703 115.68851715 307.05073325 116.42618352 C307.05095153 117.14383797 307.05116981 117.86149242 307.0513947 118.60089397 C307.05183816 120.05505562 307.05228472 121.50921726 307.05273438 122.96337891 C307.0529558 123.68468856 307.05317723 124.40599822 307.05340537 125.14916575 C307.05734873 136.82261363 307.07478806 148.4959989 307.0980939 160.16942263 C307.12185027 172.16582133 307.13427177 184.1621887 307.13543582 196.1586113 C307.13635041 202.88940591 307.14204754 209.62011904 307.16025543 216.35089111 C307.17676588 222.68741773 307.17887706 229.02379009 307.17011642 235.36033058 C307.16934757 237.68060533 307.17366873 240.00088847 307.18357468 242.3211422 C307.26279812 262.04117596 305.86670114 278.27101307 291.625 293.4375 C280.25704021 304.14961596 267.47218757 307.15604918 252.36328125 306.80859375 C235.76238903 305.97422148 225.41302856 296.29566535 213.8125 285.5 C212.46429606 284.30573464 211.11070232 283.11750543 209.75 281.9375 C199.88298658 273.35139704 190.28600961 264.4599577 180.6640625 255.6015625 C175.80294841 251.1301901 170.91989389 246.69479387 165.9296875 242.3671875 C162.70129035 239.5200033 159.54030352 236.5997593 156.37280273 233.68530273 C153.22501291 230.79032364 150.06029048 227.9163131 146.875 225.0625 C142.94422982 221.53683334 139.06037673 217.96387316 135.1875 214.375 C131.14585422 210.63109849 127.07002572 206.94361103 122.90234375 203.33984375 C120.16879441 200.93329844 117.49135994 198.46696804 114.8125 196 C111.51223124 192.96109823 108.20300653 189.938439 104.8125 187 C100.88082786 183.59255081 97.05888756 180.06870327 93.23217773 176.54467773 C90.47776572 174.01259884 87.70507501 171.50964732 84.875 169.0625 C80.69140143 165.43787911 76.6481539 161.66614933 72.59008789 157.90258789 C69.69885872 155.22598962 66.79360596 152.57688821 63.8125 150 C60.23898214 146.91102693 56.77538886 143.71157787 53.3125 140.5 C49.22411489 136.70865663 45.1023388 132.97422101 40.88671875 129.32421875 C36.65285296 125.6006494 32.52476218 121.75831574 28.37695312 117.93945312 C25.36388509 115.1671296 22.34369492 112.40256952 19.32446289 109.63696289 C16.75872441 107.28612022 14.1955689 104.93255906 11.63671875 102.57421875 C11.11142578 102.09082031 10.58613281 101.60742188 10.04492188 101.109375 C8.59563625 99.7755192 7.14739058 98.44053371 5.69921875 97.10546875 C3.53254594 95.14989262 1.35013777 93.23287405 -0.86791992 91.3371582 C-1.4915593 90.80379349 -2.11519867 90.27042877 -2.75773621 89.72090149 C-3.22955826 89.318004 -3.70138031 88.91510651 -4.1875 88.5 C-4.18988835 89.45968374 -4.19227671 90.41936749 -4.19473743 91.40813255 C-4.25357783 114.77827593 -4.32948877 138.14831658 -4.42321491 161.51834679 C-4.46814686 172.82000164 -4.50756758 184.12162517 -4.53393555 195.42333984 C-4.55693663 205.27592579 -4.59035835 215.12841237 -4.63620156 224.98091948 C-4.6601052 230.19591654 -4.67885275 235.41081537 -4.68511391 240.62586594 C-4.69117764 245.53917603 -4.71122416 250.45223487 -4.74177551 255.36545181 C-4.75053507 257.1640727 -4.75428265 258.96272645 -4.75250816 260.7613678 C-4.74286191 275.05653642 -6.03323429 286.08300023 -15.67578125 297.21875 C-22.53065997 303.88652285 -31.99510422 306.76618521 -41.375 307.0625 C-53.09072027 306.54353122 -60.18927943 301.87978706 -68.1875 293.5 C-74.23938615 285.89634817 -75.63527991 278.54023436 -75.57518005 269.12101746 C-75.58056559 268.10105519 -75.58595113 267.08109293 -75.59149987 266.03022271 C-75.60576289 262.62573724 -75.59867959 259.2216415 -75.59155273 255.81713867 C-75.5972572 253.37078032 -75.60422176 250.92442462 -75.61235046 248.47807312 C-75.62842783 242.5304358 -75.63038378 236.5828961 -75.62513756 230.63524862 C-75.62108913 225.79808957 -75.62254739 220.96096167 -75.62788582 216.12380409 C-75.62863424 215.43422365 -75.62938266 214.74464322 -75.63015376 214.0341664 C-75.63168532 212.63307171 -75.63322366 211.23197702 -75.63476873 209.83088235 C-75.64848478 196.70258274 -75.64306278 183.57434278 -75.63158352 170.44604454 C-75.62165589 158.45205186 -75.63458521 146.45821356 -75.65851771 134.46424469 C-75.68293848 122.13209693 -75.69250905 109.80002099 -75.68586498 97.46784955 C-75.68237887 90.55101712 -75.68456428 83.63430332 -75.70211601 76.71748924 C-75.71842245 70.21098334 -75.71361 63.70469907 -75.69481087 57.19819832 C-75.69112959 54.81461518 -75.69421991 52.43101016 -75.70469666 50.0474472 C-75.71793957 46.78460592 -75.7063288 43.52273383 -75.68870544 40.25993347 C-75.69831045 39.32469461 -75.70791546 38.38945575 -75.71781152 37.42587632 C-75.58361159 25.28592957 -70.18737353 13.60162901 -61.9375 4.75 C-44.2383876 -11.74588326 -20.03154314 -12.58913987 0 0 Z " fill="#FCFCFC" transform="translate(383.1875,314.5)"/>
<path d="M0 0 C10.43489509 6.85079262 19.19643251 16.55444267 27.96231842 25.38715363 C29.69362534 27.13152529 31.42830095 28.87248898 33.16375732 30.61273193 C36.84121493 34.30146258 40.5146607 37.99417167 44.1875 41.6875 C48.46507926 45.98884203 52.74437512 50.28844884 57.02791595 54.58385468 C58.72263356 56.28497124 60.41427231 57.98910694 62.10577393 59.69342041 C67.0109614 64.62169173 71.94956659 69.44559271 77.24017334 73.96502686 C79.77588671 76.16482135 82.11045219 78.51653149 84.46875 80.90625 C84.94896606 81.39025269 85.42918213 81.87425537 85.9239502 82.3729248 C87.93549879 84.40049646 89.94087653 86.43412849 91.94677734 88.46728516 C97.1606901 93.74558812 102.38393387 98.92878658 108.02929688 103.75195312 C112.43262455 107.64148412 116.46740757 111.93152247 120.58203125 116.12109375 C123.88949703 119.46483886 127.2062962 122.72324471 130.78125 125.78125 C136.63251711 130.81552603 141.95877516 136.40197487 147.37402344 141.89453125 C152.40852745 146.99432917 157.46975312 151.98023688 162.91796875 156.640625 C168.02503263 161.18462768 172.720492 166.18690097 177.515625 171.0546875 C181.21935368 174.79249957 184.90821306 178.4822487 188.90625 181.90625 C195.00599018 187.13634851 200.52345852 192.98165017 206.16015625 198.69921875 C210.64069997 203.21889386 215.16102004 207.57761272 219.99414062 211.71679688 C224.40568098 215.62289441 228.45534316 219.9192383 232.58203125 224.12109375 C236.60925491 228.19249171 240.72649401 232.05895859 245.06689453 235.79394531 C247.87697379 238.26294212 250.5038713 240.89587774 253.125 243.5625 C253.61935547 244.06136719 254.11371094 244.56023437 254.62304688 245.07421875 C255.59638938 246.05653806 256.56843815 247.04014129 257.5390625 248.02514648 C258.89529725 249.39487729 260.26580656 250.75042819 261.63671875 252.10546875 C268.25389509 258.81252185 271.8502002 266.216137 272.375 275.75 C271.89834253 286.54152511 267.75907509 296.01738629 259.9375 303.4375 C250.6260256 310.32766605 240.23520034 311.43729649 228.9375 310.4375 C212.19276727 306.63972557 200.20061459 292.93803567 188.65332031 281.11694336 C185.92230003 278.33876053 183.12972573 275.70844709 180.171875 273.171875 C174.24822876 268.05047747 168.85099408 262.39513793 163.359375 256.8203125 C158.9933967 252.41415649 154.57546861 248.1815514 149.8671875 244.14453125 C145.68509479 240.4449877 141.84535574 236.38261855 137.9375 232.3984375 C134.03558264 228.45079455 130.0275087 224.72801738 125.82128906 221.10742188 C122.47037473 218.13693795 119.4094584 214.88188557 116.33984375 211.625 C112.37599077 207.54549083 108.6315275 204.83037901 102.9375 204 C95.6093485 205.06868876 90.4754266 211.62187724 85.50390625 216.640625 C84.70774399 217.43724548 83.91158173 218.23386597 83.09129333 219.05462646 C81.41224627 220.73668624 79.73562188 222.42116742 78.0612793 224.10791016 C75.51724674 226.67012997 72.96537313 229.22432619 70.41210938 231.77734375 C68.77557061 233.41880132 67.13948799 235.06071383 65.50390625 236.703125 C64.74952774 237.45861633 63.99514923 238.21410767 63.21791077 238.99249268 C59.90059484 242.33916743 56.65909486 245.7066977 53.58618164 249.2800293 C45.93849503 258.14022784 37.4323014 266.28876494 29.18847656 274.59155273 C26.94023238 276.85759562 24.7008189 279.13184299 22.46875 281.41381836 C19.74449267 284.19885687 17.00524947 286.96833077 14.25525284 289.72794914 C13.22244685 290.76920587 12.19469761 291.81550826 11.17263412 292.86731148 C0.37315278 303.96400506 -9.90023483 310.40769833 -25.6875 310.8125 C-34.57646476 310.87304594 -42.21049282 308.53325016 -49.4375 303.1875 C-57.8003598 294.42640879 -60.53142341 286.14118419 -60.49194336 274.26367188 C-60.07983634 258.34826037 -47.24743161 248.45388996 -36.62719727 237.92041016 C-35.25287168 236.55079119 -33.87854714 235.18117116 -32.5042628 233.8115108 C-31.0484594 232.36153831 -29.59142022 230.91281816 -28.13403511 229.46443558 C-25.08405973 226.43295288 -22.03860872 223.39695126 -18.99388123 220.36019897 C-10.34321994 211.73354686 -1.68648811 203.1130011 6.97436523 194.49658203 C11.77469716 189.72079897 16.57142652 184.9414267 21.36432415 180.1581825 C24.38955197 177.13948476 27.4192227 174.12534158 30.45229614 171.11452794 C32.77485997 168.80644461 35.09090171 166.49183191 37.40795898 164.17822266 C38.24689697 163.34804626 39.08583496 162.51786987 39.95019531 161.66253662 C40.71404037 160.89738739 41.47788544 160.13223816 42.26487732 159.34390259 C42.929784 158.68213831 43.59469069 158.02037403 44.27974606 157.33855629 C46.67332551 154.59368013 47.77255471 152.24389921 48.5 148.6875 C47.18133675 141.06855679 38.33541043 134.67954017 33 129.375 C32.33548828 128.70662109 31.67097656 128.03824219 30.98632812 127.34960938 C27.74698845 124.11655358 24.46671925 120.98818017 20.99609375 118.00390625 C15.58661579 113.33595966 10.65452535 108.20089097 5.6484375 103.109375 C2.1916557 99.61695627 -1.2685483 96.19945758 -5 93 C-10.87660182 87.94961349 -16.20680553 82.33646256 -21.640625 76.8203125 C-25.98434048 72.43662418 -30.37597542 68.21416009 -35.05712891 64.19384766 C-38.9215402 60.80931213 -42.58492126 57.22249137 -46.25 53.625 C-47.03052734 52.88185547 -47.81105469 52.13871094 -48.61523438 51.37304688 C-55.64179363 44.45376333 -61.08774846 36.46377796 -61.3125 26.3125 C-61.14083622 16.79296318 -57.8816783 9.10843529 -51.0625 2.4375 C-35.47220649 -9.57619677 -17.03285542 -9.35722153 0 0 Z " fill="#FCFCFC" transform="translate(971.0625,310.5625)"/>
<path d="M0 0 C8.55928089 4.75979523 14.76109298 12.30973841 18.40234375 21.3359375 C19.15587361 24.58170654 19.52838587 27.59290569 19.53377151 30.9212904 C19.53761266 31.81682792 19.5414538 32.71236544 19.54541135 33.63504046 C19.54454487 34.60973782 19.54367838 35.58443518 19.54278564 36.58866882 C19.54575677 37.63127469 19.54872789 38.67388056 19.55178905 39.74808055 C19.56047117 43.24701949 19.56198389 46.74592419 19.56347656 50.24487305 C19.56810508 52.75152154 19.57312979 55.25816932 19.57852173 57.76481628 C19.59164459 64.57902418 19.59812735 71.39322081 19.60253239 78.20743918 C19.60529764 82.4648048 19.60953552 86.72216816 19.61403656 90.97953224 C19.6262274 102.77409949 19.63652691 114.56866493 19.63991165 126.36323833 C19.640241 127.49501422 19.640241 127.49501422 19.640577 128.64965426 C19.64090442 129.78409165 19.64090442 129.78409165 19.64123845 130.94144696 C19.64168191 132.47390409 19.64212848 134.00636123 19.64257812 135.53881836 C19.64279955 136.29896513 19.64302098 137.0591119 19.64324912 137.84229342 C19.64719549 150.15398016 19.66464542 162.46560766 19.68793765 174.77727153 C19.71167535 187.42683928 19.72411461 200.07637733 19.72527957 212.72596771 C19.726195 219.82444697 19.73191387 226.92284904 19.75009918 234.02130699 C19.76714945 240.7001064 19.76873474 247.37873457 19.75996017 254.05755806 C19.75918986 256.50606554 19.76353175 258.9545809 19.77341843 261.40306854 C19.78614435 264.75164876 19.78025713 268.09971101 19.76983643 271.44828796 C19.78192103 272.89360359 19.78192103 272.89360359 19.79424977 274.36811751 C19.71772583 284.91887386 16.91646751 294.43570442 9.6171875 302.24609375 C0.89969975 310.40898983 -8.29705622 312.73878113 -19.9921875 312.60546875 C-29.54852644 311.89107288 -36.20025752 307.252729 -42.59765625 300.3359375 C-49.41952775 291.8638876 -51.05180529 282.09985296 -50.9853363 271.48866272 C-50.99072184 270.44249029 -50.99610738 269.39631786 -51.00165612 268.31844324 C-51.01588403 264.83725477 -51.00884461 261.35644934 -51.00170898 257.87524414 C-51.00741521 255.36947831 -51.01438045 252.86371508 -51.02250671 250.35795593 C-51.03856619 244.27287805 -51.04054459 238.18794884 -51.03529381 232.10286433 C-51.03124233 227.15419728 -51.03270724 222.20556067 -51.03804207 217.25689507 C-51.03879049 216.55093344 -51.03953891 215.84497181 -51.04031001 215.11761741 C-51.04184159 213.68318379 -51.04337993 212.24875017 -51.04492498 210.81431656 C-51.05863288 197.38175082 -51.05322424 183.94924343 -51.04173977 170.51667904 C-51.03180776 158.24475426 -51.04475049 145.97298025 -51.06867396 133.70107872 C-51.09309232 121.07958485 -51.10266621 108.45816112 -51.09602123 95.83664411 C-51.09253527 88.75887537 -51.09471988 81.68122256 -51.11227226 74.60347176 C-51.12857479 67.94755644 -51.12377013 61.29188168 -51.10496712 54.63595772 C-51.10128519 52.19754592 -51.10437806 49.75911275 -51.11485291 47.32072067 C-51.12809096 43.98354961 -51.11648929 40.64732688 -51.09886169 37.31019592 C-51.1084667 36.35297561 -51.11807171 35.3957553 -51.12796777 34.40952832 C-51.01048112 23.54605999 -47.29557549 14.07759491 -39.59765625 6.3359375 C-27.85011473 -3.26400659 -14.2912168 -6.06033555 0 0 Z " fill="#FCFCFC" transform="translate(818.59765625,308.6640625)"/>
<path d="M0 0 C5.28115677 4.21425641 8.58693245 9.87459323 10.6875 16.25 C11.69614821 26.51240913 11.14958101 35.58915096 4.59375 43.90625 C1.67464774 47.2145659 -1.3872654 50.3371073 -4.52709961 53.43505859 C-7.162018 56.09792204 -9.72427315 58.81218873 -12.27633667 61.55375671 C-22.37116143 72.38794178 -32.74719174 82.93839468 -43.19628906 93.42895508 C-45.20701797 95.44864834 -47.21147373 97.47428165 -49.2109375 99.50512695 C-51.67777812 102.0106669 -54.15453956 104.50598964 -56.63855362 106.99450111 C-58.00857645 108.3716189 -59.36895536 109.7583102 -60.72897339 111.14530945 C-70.08480134 120.46888052 -78.90942925 126.08303793 -92.1875 126.625 C-101.56966459 126.41257363 -108.59897483 123.06105269 -115.328125 116.55859375 C-121.7376941 109.1017919 -123.42818333 100.79482525 -122.83203125 91.1640625 C-121.54390474 81.45953041 -116.5150773 75.17137287 -109.96777344 68.29345703 C-109.04532648 67.31545985 -109.04532648 67.31545985 -108.10424423 66.31770515 C-101.48275929 59.32382273 -94.73631333 52.45384471 -87.953125 45.6171875 C-87.30545921 44.96419804 -86.65779343 44.31120857 -85.9905014 43.63843155 C-82.57798065 40.19954975 -79.16204203 36.76410193 -75.74365234 33.33105469 C-72.94202228 30.51598637 -70.14789394 27.69377107 -67.35986328 24.86523438 C-63.95082579 21.40673642 -60.52954042 17.96081177 -57.09923553 14.5234108 C-55.80810286 13.2256117 -54.52118982 11.92359897 -53.2388382 10.61712265 C-37.93344264 -4.96029892 -20.21973902 -13.83256913 0 0 Z " fill="#FB5109" transform="translate(1229.3125,287.75)"/>
<path d="M0 0 C3.3 0 6.6 0 10 0 C13.96 7.92 17.92 15.84 22 24 C23.2375 21.525 24.475 19.05 25.75 16.5 C28.5 11 31.25 5.5 34 0 C37.3 0 40.6 0 44 0 C44 13.53 44 27.06 44 41 C41.36 41 38.72 41 36 41 C35.505 28.625 35.505 28.625 35 16 C32.03 22.27 29.06 28.54 26 35 C23.36 35 20.72 35 18 35 C14.04 26.585 14.04 26.585 10 18 C9.67 25.59 9.34 33.18 9 41 C6.03 41 3.06 41 0 41 C0 27.47 0 13.94 0 0 Z " fill="#EDECED" transform="translate(1144,673)"/>
<path d="M0 0 C9 0 9 0 11.78515625 2.67578125 C12.57523565 3.86807077 13.33335191 5.08200302 14.0625 6.3125 C14.89373618 7.5929644 15.72577921 8.87290535 16.55859375 10.15234375 C16.96319824 10.79671387 17.36780273 11.44108398 17.78466797 12.10498047 C19.61238176 14.95486283 21.61241893 17.65251379 23.625 20.375 C25.295625 22.664375 25.295625 22.664375 27 25 C27.33 16.75 27.66 8.5 28 0 C30.97 0 33.94 0 37 0 C37 13.53 37 27.06 37 41 C28 41 28 41 25.86425781 39.45874023 C25.39858398 38.74919189 24.93291016 38.03964355 24.453125 37.30859375 C23.91816406 36.52806641 23.38320313 35.74753906 22.83203125 34.94335938 C22.04892578 33.70295898 22.04892578 33.70295898 21.25 32.4375 C20.71246094 31.63763672 20.17492187 30.83777344 19.62109375 30.01367188 C18.56428241 28.43874014 17.51899197 26.85600615 16.48632812 25.26513672 C14.41490965 22.10833307 12.21568278 19.05682161 10 16 C9.97494385 16.7520874 9.9498877 17.5041748 9.92407227 18.27905273 C9.80849486 21.66539196 9.68559655 25.05142613 9.5625 28.4375 C9.52318359 29.62150391 9.48386719 30.80550781 9.44335938 32.02539062 C9.40146484 33.15009766 9.35957031 34.27480469 9.31640625 35.43359375 C9.27974854 36.47572021 9.24309082 37.51784668 9.20532227 38.59155273 C9 41 9 41 8 42 C5.36 42 2.72 42 0 42 C0 28.14 0 14.28 0 0 Z " fill="#E7E7E7" transform="translate(551,673)"/>
<path d="M0 0 C3.46679688 0.04882812 3.46679688 0.04882812 6.93359375 0.09765625 C10.20152586 7.34738914 13.30868451 14.66003601 16.36230469 22.00195312 C16.91470562 23.32745264 17.46943474 24.65198403 18.02636719 25.97558594 C18.83911653 27.90740672 19.64493048 29.84198766 20.44921875 31.77734375 C20.92649414 32.91929199 21.40376953 34.06124023 21.89550781 35.23779297 C22.93359375 38.09765625 22.93359375 38.09765625 22.93359375 41.09765625 C20.29359375 41.09765625 17.65359375 41.09765625 14.93359375 41.09765625 C11.93359375 35.34765625 11.93359375 35.34765625 11.93359375 33.09765625 C5.66359375 33.09765625 -0.60640625 33.09765625 -7.06640625 33.09765625 C-7.72640625 35.40765625 -8.38640625 37.71765625 -9.06640625 40.09765625 C-10.06640625 41.09765625 -10.06640625 41.09765625 -11.9140625 41.1953125 C-13.96484375 41.16276042 -16.015625 41.13020833 -18.06640625 41.09765625 C-15.89624682 33.02384604 -12.89678441 25.31855044 -9.76806641 17.58081055 C-8.93114672 15.50976802 -8.10185613 13.43578384 -7.2734375 11.36132812 C-2.76330293 0.13059088 -2.76330293 0.13059088 0 0 Z " fill="#EDEDED" transform="translate(731.06640625,672.90234375)"/>
<path d="M0 0 C9.9 0 19.8 0 30 0 C30 2.64 30 5.28 30 8 C23.07 8 16.14 8 9 8 C9 10.97 9 13.94 9 17 C14.94 17 20.88 17 27 17 C27 19.31 27 21.62 27 24 C21.06 24 15.12 24 9 24 C9 27.3 9 30.6 9 34 C15.93 34 22.86 34 30 34 C30 36.64 30 39.28 30 42 C20.1 42 10.2 42 0 42 C0 28.14 0 14.28 0 0 Z " fill="#E4E4E4" transform="translate(368,673)"/>
<path d="M0 0 C2.97 0 5.94 0 9 0 C9 5.61 9 11.22 9 17 C15.27 17 21.54 17 28 17 C28 11.39 28 5.78 28 0 C30.64 0 33.28 0 36 0 C36 13.53 36 27.06 36 41 C33.36 41 30.72 41 28 41 C28 35.39 28 29.78 28 24 C21.73 24 15.46 24 9 24 C9 29.94 9 35.88 9 42 C6.03 42 3.06 42 0 42 C0 28.14 0 14.28 0 0 Z " fill="#EAEAEA" transform="translate(487,673)"/>
<path d="M0 0 C9.9 0 19.8 0 30 0 C30 2.64 30 5.28 30 8 C22.74 8 15.48 8 8 8 C8 10.97 8 13.94 8 17 C14.27 17 20.54 17 27 17 C27 19.31 27 21.62 27 24 C21.06 24 15.12 24 9 24 C9 27.3 9 30.6 9 34 C15.93 34 22.86 34 30 34 C30 36.31 30 38.62 30 41 C20.1 41 10.2 41 0 41 C0 27.47 0 13.94 0 0 Z " fill="#ECECEC" transform="translate(1088,673)"/>
<path d="M0 0 C2.45911875 1.26468964 3.20280997 1.73153772 4.0859375 4.390625 C4.18132812 5.00421875 4.27671875 5.6178125 4.375 6.25 C3.055 7.24 1.735 8.23 0.375 9.25 C-1.625 8.25 -3.625 7.25 -5.625 6.25 C-7.14345202 6.15527088 -8.66610384 6.1201159 -10.1875 6.125 C-10.99316406 6.12242187 -11.79882812 6.11984375 -12.62890625 6.1171875 C-14.62442021 6.02988609 -14.62442021 6.02988609 -15.625 7.25 C-15.66563832 8.91617115 -15.667721 10.58388095 -15.625 12.25 C-14.61179687 12.55292969 -13.59859375 12.85585938 -12.5546875 13.16796875 C-11.20289311 13.5904045 -9.85134334 14.01362358 -8.5 14.4375 C-7.50226563 14.73237305 -7.50226563 14.73237305 -6.484375 15.03320312 C-1.55476999 16.6039106 1.62149925 18.67333592 5.375 22.25 C6.9297669 25.35953379 6.66144437 27.81266761 6.375 31.25 C4.31832667 35.52788054 2.1235745 38.14378846 -2.44140625 39.7734375 C-8.95345965 41.19467277 -15.38689523 41.46019298 -21.25 38 C-24.02965634 36.09998174 -25.2929172 34.33621163 -26.625 31.25 C-24.875 29.6875 -24.875 29.6875 -22.625 28.25 C-19.92293034 28.42432707 -18.56305353 29.29185573 -16.3125 30.8125 C-12.26834598 32.97565215 -8.60509446 32.65617322 -4.1875 31.75 C-3.4140625 31.5025 -3.4140625 31.5025 -2.625 31.25 C-2.955 29.27 -3.285 27.29 -3.625 25.25 C-5.27048828 24.79560547 -5.27048828 24.79560547 -6.94921875 24.33203125 C-8.4038935 23.90970632 -9.85830717 23.48648137 -11.3125 23.0625 C-12.03373047 22.86591797 -12.75496094 22.66933594 -13.49804688 22.46679688 C-18.41122828 21.00854669 -21.20734663 19.24270786 -24.625 15.25 C-24.955 14.92 -25.285 14.59 -25.625 14.25 C-26.02888715 10.13035111 -25.86577056 7.73154111 -24 4 C-17.84203863 -3.13027106 -8.38106215 -3.81368475 0 0 Z " fill="#EFEEEE" transform="translate(1239.625,674.75)"/>
<path d="M0 0 C2.90359282 1.8346084 4.67100309 4.02412115 5.8203125 7.2421875 C4.0703125 8.8046875 4.0703125 8.8046875 1.8203125 10.2421875 C-1.24680314 9.96335881 -2.54339456 8.99971613 -5.1796875 7.2421875 C-7.43091247 6.96387278 -7.43091247 6.96387278 -9.8046875 7.0546875 C-10.60132813 7.06113281 -11.39796875 7.06757812 -12.21875 7.07421875 C-14.18258484 7.03035852 -14.18258484 7.03035852 -15.1796875 8.2421875 C-15.22032582 9.90835865 -15.2224085 11.57606845 -15.1796875 13.2421875 C-14.09429688 13.54511719 -13.00890625 13.84804688 -11.890625 14.16015625 C-10.44508466 14.5825544 -8.99978461 15.00577548 -7.5546875 15.4296875 C-6.84183594 15.62626953 -6.12898437 15.82285156 -5.39453125 16.02539062 C-0.2862284 17.54850845 3.09469977 19.37751613 6.8203125 23.2421875 C8.04048265 27.26805962 7.20724166 31.15394924 5.8203125 35.0546875 C2.23832069 38.97249105 -1.60599734 40.87184546 -6.8671875 41.62890625 C-13.04262681 41.87763922 -18.19180944 41.06867238 -23.1796875 37.2421875 C-25.1796875 34.4921875 -25.1796875 34.4921875 -26.1796875 32.2421875 C-24.4296875 30.6796875 -24.4296875 30.6796875 -22.1796875 29.2421875 C-19.47761784 29.41651457 -18.11774103 30.28404323 -15.8671875 31.8046875 C-12.40733548 33.65530602 -10.05597347 33.59457713 -6.1796875 33.2421875 C-3.82598943 32.36153823 -3.82598943 32.36153823 -2.1796875 31.2421875 C-2.6746875 28.7671875 -2.6746875 28.7671875 -3.1796875 26.2421875 C-3.7365625 26.06042969 -4.2934375 25.87867188 -4.8671875 25.69140625 C-6.46711653 25.1644026 -8.06463935 24.63005813 -9.66015625 24.08984375 C-11.23999302 23.55833278 -12.82537056 23.04273566 -14.41796875 22.55078125 C-18.97979879 21.04735327 -21.85699778 19.69400947 -24.1796875 15.2421875 C-24.98255511 10.64242517 -24.83949242 7.34971718 -22.4296875 3.3046875 C-16.54036845 -2.09385496 -7.46314374 -2.59471306 0 0 Z " fill="#F0F0F0" transform="translate(1000.1796875,673.7578125)"/>
<path d="M0 0 C3.52862761 1.22460422 5.41143786 3.03689832 7.375 6.25 C7.58125 6.8275 7.7875 7.405 8 8 C6.3125 9.625 6.3125 9.625 4 11 C1.375 10.25 1.375 10.25 -1 9 C-3.40545638 7.79727181 -4.94996953 7.89928528 -7.625 7.9375 C-8.44226563 7.94652344 -9.25953125 7.95554687 -10.1015625 7.96484375 C-10.72804688 7.97644531 -11.35453125 7.98804688 -12 8 C-12.74957157 11.47147842 -12.74957157 11.47147842 -13 15 C-12.13117187 15.18175781 -11.26234375 15.36351562 -10.3671875 15.55078125 C4.90569106 18.88211382 4.90569106 18.88211382 9 24 C9.81411696 27.75791671 9.76259918 31.23533786 9 35 C6.20910376 38.94233158 2.73921592 41.16002703 -2 42 C-9.1944479 42.68146168 -14.98889965 42.23895992 -21 38 C-22.02414103 37.02473842 -23.03148504 36.03052354 -24 35 C-23 32 -23 32 -20 30 C-17.34205871 30.26579413 -15.91311271 31.05870763 -13.6875 32.5625 C-10.22764798 34.41311852 -7.87628597 34.35238963 -4 34 C-1.64630193 33.11935073 -1.64630193 33.11935073 0 32 C-0.18828772 29.55519921 -0.18828772 29.55519921 -1 27 C-4.10813752 24.98586893 -7.34209229 24.45729332 -10.9375 23.75 C-17.64118489 22.0965881 -17.64118489 22.0965881 -20.25 19.375 C-22.47149124 15.09069546 -23.10840681 11.73036607 -22 7 C-15.83993728 -0.82494454 -9.40384334 -0.88532165 0 0 Z " fill="#F1F1F1" transform="translate(885,673)"/>
<path d="M0 0 C2.79582902 1.66334132 4.81614404 3.32714507 6.375 6.25 C6.375 6.91 6.375 7.57 6.375 8.25 C1.99038462 11.25 1.99038462 11.25 -0.625 11.25 C-1.95833333 9.91666667 -3.29166667 8.58333333 -4.625 7.25 C-9.11769144 5.75243619 -12.95010608 5.56481612 -17.375 7.375 C-21.24263989 10.59803324 -22.46944911 13.7981917 -23 18.75 C-22.42797511 24.088899 -20.93357972 27.03489026 -17 30.6875 C-12.52725325 32.75821609 -9.3190941 32.59714644 -4.625 31.25 C-2.35863136 30.09595953 -0.63098354 28.84449973 1.375 27.25 C3.355 28.57 5.335 29.89 7.375 31.25 C3.71411829 36.3981149 0.62845887 38.96751098 -5.625 40.25 C-12.65849199 41.08048521 -18.9122424 40.75285042 -24.625 36.25 C-30.7234267 29.63227496 -31.99755204 24.41068903 -31.8984375 15.48046875 C-31.37582371 9.30616014 -28.60460243 5.96481681 -24.0625 1.875 C-17.69348737 -3.43014637 -7.36472715 -3.4972168 0 0 Z " fill="#F1F1F1" transform="translate(683.625,674.75)"/>
<path d="M0 0 C2.5 2.125 2.5 2.125 4 4 C4 4.66 4 5.32 4 6 C1.69 6.99 -0.62 7.98 -3 9 C-3.598125 8.360625 -4.19625 7.72125 -4.8125 7.0625 C-8.27157325 3.80108808 -11.36052035 3.76627795 -16 3.8515625 C-18.74525834 4.05531214 -20.64988934 4.54846106 -23 6 C-25.87813198 10.38572492 -25.51836206 15.94596989 -25 21 C-23.76208628 24.58343447 -22.65670513 26.40123944 -19.875 28.9375 C-15.73122441 30.46889533 -12.23373263 30.16370228 -8 29 C-4.99385591 27.11753969 -4.99385591 27.11753969 -3 25 C1.75 26.875 1.75 26.875 4 28 C3.09020047 30.91038022 2.44190308 32.64348456 0.0390625 34.58203125 C-6.63796343 37.98536971 -12.53441829 39.27687191 -20 38 C-26.56701376 35.43832191 -31.29705737 30.56807027 -34.3125 24.25 C-35.6237293 18.05146151 -36.22825063 12.40056522 -32.9375 6.75 C-24.90153006 -4.50492381 -11.99389139 -8.29695075 0 0 Z " fill="#F0F0F0" transform="translate(457,677)"/>
<path d="M0 0 C3.13941829 -0.52907173 5.87860201 -0.70385099 9 0 C11.57779923 2.44520101 12.99715731 5.33916355 14.5625 8.5 C14.99884766 9.31082031 15.43519531 10.12164063 15.88476562 10.95703125 C16.95537631 12.95707319 17.99088837 14.96842787 19 17 C19.45890625 16.27554688 19.9178125 15.55109375 20.390625 14.8046875 C21.65429429 12.81361193 22.92676833 10.82810288 24.20703125 8.84765625 C25.94812512 6.16915451 25.94812512 6.16915451 27.07421875 3.93359375 C27.9375 2.3125 27.9375 2.3125 30 0 C32.84332374 -0.50046897 35.08328431 -0.29167157 38 0 C37.4772996 4.75837608 35.24210514 8.12403416 32.625 12 C31.4366785 13.79398214 30.25017281 15.58889276 29.07250977 17.38989258 C28.16873756 18.7466824 27.2164767 20.07099046 26.25390625 21.38671875 C24.44972858 25.14682736 24.43346775 28.68922778 24.3125 32.8125 C24.27833984 33.60076172 24.24417969 34.38902344 24.20898438 35.20117188 C24.12700125 37.13363119 24.06181155 39.06679035 24 41 C21.03 41 18.06 41 15 41 C14.99742187 39.96101562 14.99484375 38.92203125 14.9921875 37.8515625 C14.80295256 28.5320218 13.57922771 22.6729251 8 15 C6.50549578 12.688692 5.0661197 10.34483458 3.625 8 C2.59246094 6.3603125 2.59246094 6.3603125 1.5390625 4.6875 C0 2 0 2 0 0 Z " fill="#EDECED" transform="translate(915,673)"/>
<path d="M0 0 C11.22 0 22.44 0 34 0 C34 2.64 34 5.28 34 8 C29.71 8 25.42 8 21 8 C21 18.89 21 29.78 21 41 C18.36 41 15.72 41 13 41 C13 30.11 13 19.22 13 8 C8.71 8 4.42 8 0 8 C0 5.36 0 2.72 0 0 Z " fill="#ECECEC" transform="translate(1029,673)"/>
<path d="M0 0 C10.89 0 21.78 0 33 0 C33 2.31 33 4.62 33 7 C28.71 7 24.42 7 20 7 C20 18.22 20 29.44 20 41 C17.36 41 14.72 41 12 41 C12 30.11 12 19.22 12 8 C8.04 8 4.08 8 0 8 C0 5.36 0 2.72 0 0 Z " fill="#EEEEEE" transform="translate(310,673)"/>
<path d="M0 0 C2.64 0 5.28 0 8 0 C8 11.22 8 22.44 8 34 C14.27 34 20.54 34 27 34 C27 36.31 27 38.62 27 41 C18.09 41 9.18 41 0 41 C0 27.47 0 13.94 0 0 Z " fill="#F4F4F4" transform="translate(779,673)"/>
<path d="M0 0 C2.64 0 5.28 0 8 0 C8 13.2 8 26.4 8 40 C5.36 40 2.72 40 0 40 C0 26.8 0 13.6 0 0 Z " fill="#F6F6F6" transform="translate(617,674)"/>
<path d="M0 0 C2.35082212 2.89642841 3.83519406 5.65356331 5.1875 9.125 C5.53167969 9.99382813 5.87585938 10.86265625 6.23046875 11.7578125 C7 14 7 14 7 16 C2.71 16 -1.58 16 -6 16 C-4.23196827 10.52752083 -2.34565002 5.24978815 0 0 Z " fill="#292929" transform="translate(733,683)"/>
<path d="M0 0 C1.9375 0.625 1.9375 0.625 4 2 C4.75 5.125 4.75 5.125 5 8 C1.7 8 -1.6 8 -5 8 C-4.67 7.01 -4.34 6.02 -4 5 C-3.01 4.67 -2.02 4.34 -1 4 C-0.26676204 1.98491642 -0.26676204 1.98491642 0 0 Z " fill="#0F0F0F" transform="translate(734,690)"/>
<path d="M0 0 C3.26954202 0.56371414 4.82575883 1.49962266 7 4 C6.67 4.99 6.34 5.98 6 7 C3.4375 8.1875 3.4375 8.1875 1 9 C0.67 8.34 0.34 7.68 0 7 C0.33 6.01 0.66 5.02 1 4 C0.61067144 1.85744207 0.61067144 1.85744207 0 0 Z " fill="#EAE9E9" transform="translate(886,675)"/>
<path d="M0 0 C2.15377564 2.62198774 3.40072174 4.64404172 4 8 C2.68 8.33 1.36 8.66 0 9 C0 6.03 0 3.06 0 0 Z " fill="#111111" transform="translate(1153,689)"/>
<path d="M0 0 C2.97 0 5.94 0 9 0 C6.02787856 1.48606072 4.09829285 2.30038549 1 3 C0.01 3.33 -0.98 3.66 -2 4 C-1.34 2.68 -0.68 1.36 0 0 Z " fill="#141414" transform="translate(1225,680)"/>
</svg>
