<?xml version="1.0" encoding="UTF-8"?>
<svg version="1.1" xmlns="http://www.w3.org/2000/svg" width="1536" height="1024">
<path d="M0 0 C0.886875 0.4021875 1.77375 0.804375 2.6875 1.21875 C9.82305521 4.7865276 15.25904473 9.52920733 21 15 C22.2848412 16.13278898 23.57617189 17.25827563 24.875 18.375 C28.84330549 21.82919304 32.71012559 25.39130558 36.57983398 28.95483398 C39.33438092 31.487107 42.10725075 33.99020203 44.9375 36.4375 C49.12109857 40.06212089 53.1643461 43.83385067 57.22241211 47.59741211 C60.11364128 50.27401038 63.01889404 52.92311179 66 55.5 C70.16566161 59.10082614 74.18600048 62.85390974 78.22265625 66.59765625 C81.11381617 69.27415929 84.01898132 71.92318724 87 74.5 C92.22571816 79.02310059 97.25933181 83.75713735 102.32861328 88.45361328 C109.31364709 94.916249 116.34621662 101.3250625 123.4296875 107.6796875 C126.34428474 110.31079807 129.23537409 112.96654417 132.125 115.625 C135.99362895 119.18258341 139.90334264 122.68289695 143.875 126.125 C147.15431143 129.01851009 150.36106712 131.99088359 153.578125 134.953125 C156.35494057 137.50555143 159.14980717 140.02983288 162 142.5 C165.87972953 145.86457872 169.65857509 149.33588908 173.4375 152.8125 C176.60779789 155.72789956 179.79394757 158.62383078 183 161.5 C186.73294965 164.84885194 190.43438884 168.22973002 194.125 171.625 C198.0397491 175.22410319 201.99027919 178.77372759 206.0078125 182.2578125 C208.36020635 184.31500399 210.68034966 186.40596915 213 188.5 C220.15717668 194.95230322 227.44299028 201.24402887 234.76953125 207.50244141 C239.0113452 211.13254355 243.19430767 214.82114775 247.328125 218.57421875 C248.95601487 220.07805034 248.95601487 220.07805034 251 221 C250.99631283 220.00939386 250.99262566 219.01878773 250.98882675 217.99816322 C250.89996656 193.87705967 250.83426756 169.75597739 250.79275131 145.63474464 C250.77213991 133.9698161 250.74404639 122.30499579 250.69824219 110.64013672 C250.65833102 100.47118315 250.63255685 90.30230797 250.62364602 80.13327825 C250.61843856 74.75052329 250.60622854 69.36799258 250.57707977 63.9853096 C250.54984317 58.91444217 250.5415717 53.84389048 250.54756927 48.77295685 C250.54647273 46.91624865 250.53856816 45.05952942 250.5231781 43.20288467 C250.41009852 28.8519317 252.04748899 18.31782927 262.25 7.375 C268.84223402 0.99405553 277.18856134 -2.01776603 286.3125 -2.3125 C296.84522021 -2.06755302 305.30545357 1.66558299 312.9765625 8.8515625 C319.05375818 15.34252469 323.10855991 23.28643077 323.13701439 32.2921648 C323.1446262 33.57560834 323.1446262 33.57560834 323.15239179 34.88498002 C323.15288955 35.82027014 323.15338731 36.75556026 323.15390015 37.7191925 C323.1582824 38.7165806 323.16266465 39.71396869 323.1671797 40.74158067 C323.18056602 44.09375425 323.18674632 47.44590154 323.19287109 50.7980957 C323.20077244 53.19796365 323.20904141 55.59783041 323.21765137 57.99769592 C323.24161115 65.20861739 323.25680272 72.41954061 323.26971143 79.63048795 C323.27342575 81.6693313 323.27739882 83.70817398 323.2814641 85.74701667 C323.30671064 98.42286897 323.32875194 111.09872241 323.34119225 123.77459431 C323.3441217 126.709837 323.34708339 129.64507966 323.35009766 132.58032227 C323.35084371 133.30981684 323.35158976 134.03931141 323.35235842 134.79091188 C323.36499167 146.58847543 323.39818776 158.38588757 323.43989949 170.18338046 C323.48242805 182.3120036 323.50590011 194.44054949 323.51111281 206.56924695 C323.51451534 213.37230569 323.52613216 220.17512816 323.55921555 226.97811317 C323.58939646 233.38612793 323.59557196 239.79373244 323.58383179 246.20180321 C323.58361187 248.54501758 323.59184872 250.88825153 323.60948563 253.23139954 C323.75486485 273.66995512 320.83953949 290.27731296 306.390625 305.70703125 C295.63651826 316.02183625 283.74425255 319.45221051 269.140625 319.2109375 C253.77716397 318.64061654 242.81018918 311.30317863 232 301 C230.67373308 299.82530644 229.34079607 298.65808238 228 297.5 C224.10209515 294.10505061 220.26652943 290.64334116 216.4296875 287.1796875 C214.3439382 285.30854906 212.24182372 283.46075169 210.125 281.625 C206.15747276 278.17148439 202.2915236 274.6099606 198.42236328 271.04736328 C195.64541318 268.49474237 192.85036687 265.97031795 190 263.5 C186.11949075 260.13474509 182.33977721 256.66284384 178.56030273 253.18530273 C175.41251291 250.29032364 172.24779048 247.4163131 169.0625 244.5625 C165.13172982 241.03683334 161.24787673 237.46387316 157.375 233.875 C153.33335422 230.13109849 149.25752572 226.44361103 145.08984375 222.83984375 C141.81885511 219.96015095 138.62496909 216.99645747 135.41943359 214.04443359 C132.66508903 211.51245176 129.8924879 209.00957199 127.0625 206.5625 C122.930891 202.98062691 118.93070073 199.26162042 114.92041016 195.54541016 C110.82306071 191.75112961 106.68589227 188.00453553 102.52734375 184.27734375 C99.66917719 181.70190155 96.8329703 179.10306369 94 176.5 C87.39328075 170.43286286 80.76089468 164.39550016 74 158.5 C66.71422656 152.14680556 59.58001436 145.62652748 52.46191406 139.08691406 C48.52244476 135.4704762 44.55090849 131.89132948 40.5703125 128.3203125 C37.65571526 125.68920193 34.76462591 123.03345583 31.875 120.375 C28.05483529 116.86198421 24.19731461 113.40160588 20.27294922 110.00537109 C17.39709451 107.46807028 14.57336998 104.87665649 11.75 102.28125 C11.19570313 101.77239258 10.64140625 101.26353516 10.0703125 100.73925781 C8.71316135 99.49325266 7.3565281 98.24668345 6 97 C5.99761165 97.97514494 5.99522329 98.95028988 5.99276257 99.95498466 C5.9339245 123.70066097 5.85801499 147.44623617 5.76428509 171.19180107 C5.71935144 182.67505856 5.67993111 194.1582852 5.65356445 205.64160156 C5.63056475 215.65239972 5.59714457 225.66310006 5.55129844 235.67382061 C5.52739294 240.97265448 5.50864661 246.27139164 5.50238609 251.57027817 C5.49632321 256.56238096 5.4762797 261.55423639 5.44572449 266.54624748 C5.43696358 268.37389468 5.43321763 270.20157423 5.43499184 272.02924156 C5.44441195 286.21658285 4.34358541 297.69015335 -5.375 308.6875 C-14.66088026 316.86791832 -23.07101478 319.66024041 -35.6015625 319.34765625 C-43.81973281 318.50694687 -51.09476696 314.75283993 -57 309 C-64.61796843 299.37821222 -67.15143098 291.03663882 -67.14044189 278.98851013 C-67.14341302 277.97181671 -67.14638414 276.95512328 -67.1494453 275.90762097 C-67.15812606 272.49626699 -67.15964004 269.08494813 -67.16113281 265.67358398 C-67.16576149 263.22929306 -67.17078622 260.78500286 -67.17617798 258.3407135 C-67.18930075 251.69578634 -67.19578385 245.05087291 -67.20018864 238.405936 C-67.20295443 234.25308082 -67.20719247 230.10022796 -67.21169281 225.94737434 C-67.22388464 214.43932841 -67.23418331 202.93128433 -67.2375679 191.42323208 C-67.23778747 190.68702362 -67.23800703 189.95081515 -67.23823325 189.19229734 C-67.23845153 188.45436636 -67.23866981 187.71643537 -67.2388947 186.95614284 C-67.23933816 185.46091489 -67.23978472 183.96568694 -67.24023438 182.47045898 C-67.2404558 181.72878052 -67.24067723 180.98710206 -67.24090537 180.2229485 C-67.2448498 168.2165389 -67.26229331 156.21019013 -67.2855939 144.20380401 C-67.30934755 131.86384994 -67.32177162 119.52392634 -67.32293582 107.18394905 C-67.32385046 100.26090403 -67.32954921 93.33793821 -67.34775543 86.41491508 C-67.36483201 79.89863938 -67.36637909 73.38248698 -67.35761642 66.86618614 C-67.35684738 64.47979581 -67.36117125 62.09339734 -67.37107468 59.70702744 C-67.44566749 40.60632388 -66.67287992 24.98856027 -53 10.25 C-39.34346522 -2.82580422 -17.69910059 -8.11208777 0 0 Z " fill="#171717" transform="translate(364,294)"/>
<path d="M0 0 C0.86496094 -0.020625 1.72992187 -0.04125 2.62109375 -0.0625 C8.7565216 -0.09929417 13.6963548 0.96423803 19.375 3.25 C20.68404297 3.745 20.68404297 3.745 22.01953125 4.25 C34.17124374 9.85511423 43.62616007 21.35889935 52.95540619 30.75524139 C54.78753849 32.60041697 56.62302167 34.44220463 58.45928955 36.28326416 C62.35073058 40.18598885 66.23816647 44.09268726 70.125 48 C74.65040393 52.54915347 79.17751534 57.09658189 83.70886993 61.63980865 C85.50329956 63.440644 87.29465508 65.24449735 89.08587646 67.04852295 C94.04597105 72.03068906 99.02728778 76.91217075 104.378479 81.47833252 C108.31337229 84.97006764 111.97797772 88.7456855 115.68052673 92.48036194 C117.19312332 94.00593977 118.70901202 95.52818086 120.22570801 97.04968262 C123.98895801 100.82616982 127.74668668 104.60813511 131.50457764 108.38995361 C134.69235668 111.59759868 137.88227042 114.80309295 141.07493591 118.00587463 C142.55470556 119.49203689 144.03138565 120.98121996 145.50793457 122.47058105 C150.07980106 127.05896048 154.69742215 131.49988224 159.61535645 135.71520996 C162.24474584 138.00860662 164.67308264 140.4544142 167.125 142.9375 C167.87861816 143.6967981 167.87861816 143.6967981 168.64746094 144.47143555 C170.7545795 146.59459649 172.85554213 148.72380842 174.95703125 150.85253906 C180.26829227 156.2264018 185.57625479 161.51767712 191.328125 166.42578125 C196.38687364 170.93424616 201.05510909 175.88271431 205.81152344 180.70703125 C210.85618567 185.81711913 215.92743252 190.81451713 221.38671875 195.484375 C226.260794 199.81263043 230.7382917 204.57899462 235.30859375 209.22265625 C238.84253193 212.79096012 242.36392267 216.30390496 246.1875 219.5625 C252.66387011 225.12197623 258.53561361 231.35683543 264.52978516 237.42529297 C270.62980998 243.59408105 276.76221792 249.62477835 283.375 255.25 C292.3071216 263.30764816 299.26682224 271.90041127 300.59375 284.29296875 C300.99108708 293.64694578 298.31876468 302.96309888 292.375 310.25 C286.32580715 316.70953198 279.32575752 321.22159091 270.32421875 321.81640625 C268.57053048 321.84408826 266.8161573 321.8420786 265.0625 321.8125 C264.14041748 321.80154297 263.21833496 321.79058594 262.26831055 321.77929688 C245.58002197 321.25095426 235.28010052 311.50575803 224.19165039 300.08203125 C221.39786834 297.21090196 218.54576563 294.49214308 215.5078125 291.87890625 C210.30301665 287.38453334 205.54586495 282.46951459 200.73046875 277.56640625 C197.37171876 274.17081439 193.99647576 270.86582231 190.375 267.75 C185.20939256 263.30564748 180.50207707 258.42492912 175.73046875 253.56640625 C172.39259995 250.19192463 169.04148404 246.90701121 165.4375 243.81640625 C159.77586886 238.94667976 154.6487252 233.53468662 149.44140625 228.18945312 C141.02621094 218.91900727 141.02621094 218.91900727 129.875 214.4375 C126.18170826 214.78920109 124.36171342 215.75830307 121.64672852 218.25610352 C120.95338409 218.8913797 120.26003967 219.52665588 119.54568481 220.18118286 C115.82394163 223.72826903 112.15800904 227.32460848 108.52734375 230.96484375 C107.71181534 231.77941544 106.89628693 232.59398712 106.05604553 233.4332428 C104.34301992 235.14559193 102.63124035 236.85918842 100.9206543 238.57397461 C98.31996448 241.18002015 95.71398044 243.78068522 93.10742188 246.38085938 C91.43457514 248.05436699 89.76203866 249.72818482 88.08984375 251.40234375 C87.31986557 252.1702977 86.54988739 252.93825165 85.75657654 253.72947693 C82.34225531 257.1584522 79.01210644 260.61160737 75.85205078 264.27734375 C72.11265618 268.61476095 68.09816451 272.63545267 64.02734375 276.66015625 C63.25242081 277.43129257 62.47749786 278.20242889 61.67909241 278.99693298 C59.22599576 281.43791931 56.76967435 283.8756189 54.3125 286.3125 C51.06866582 289.52960191 47.82825117 292.7500927 44.58984375 295.97265625 C43.85531479 296.69888687 43.12078583 297.42511749 42.36399841 298.1733551 C38.60522398 301.91433383 35.02014939 305.7079384 31.65313721 309.80718994 C25.14250438 317.15664075 14.08381286 321.6900861 4.51171875 322.62890625 C-7.55351124 323.16721217 -17.57840151 320.49107944 -26.625 312.25 C-34.30191964 304.39860492 -36.33002366 296.75825753 -36.22705078 286.05126953 C-35.29091003 265.2016463 -12.89405974 249.38812229 0.83294916 235.72358847 C3.35300505 233.21363469 5.86971817 230.70033395 8.38668823 228.18728638 C14.75479577 221.83018433 21.1271934 215.47739082 27.5 209.125 C34.41756145 202.22951239 41.33433523 195.33324398 48.24628627 188.43213189 C51.23685248 185.4465458 54.22983801 182.46341292 57.22470593 179.48214221 C59.51259818 177.2034321 61.79729706 174.92152375 64.08251953 172.64013672 C64.91255997 171.8152626 65.7426004 170.99038849 66.59779358 170.14051819 C67.3489595 169.38942276 68.10012543 168.63832733 68.87405396 167.86447144 C69.52991045 167.21083555 70.18576694 166.55719967 70.86149788 165.88375664 C73.2600102 163.29467178 73.59929147 161.38640678 73.75 157.9375 C73.82347656 156.79861328 73.82347656 156.79861328 73.8984375 155.63671875 C73.15063384 152.22695727 70.81448082 150.59178945 68.375 148.25 C67.15435367 147.02964127 65.93673366 145.80625127 64.72143555 144.58056641 C60.97795249 140.81917035 57.23132647 137.06092122 53.48364258 133.30371094 C51.87401479 131.68905155 50.2652853 130.07349615 48.6574707 128.45703125 C46.31962444 126.10696502 43.97848336 123.76022348 41.63671875 121.4140625 C40.92811203 120.70029449 40.21950531 119.98652649 39.48942566 119.25112915 C35.50345668 115.26472001 31.41138982 111.47560262 27.14265442 107.79403687 C24.9819557 105.90667787 22.94810964 103.92088349 20.9375 101.875 C20.18726563 101.11703125 19.43703125 100.3590625 18.6640625 99.578125 C17.13802083 98.02604167 15.61197917 96.47395833 14.0859375 94.921875 C10.73367597 91.53505407 7.39029949 88.20447641 3.76171875 85.11328125 C-2.35253725 79.8502048 -8.04388737 74.13006703 -13.77124023 68.45385742 C-15.13212397 67.10957578 -16.49835688 65.77068792 -17.86987305 64.43725586 C-36.11227024 46.69644281 -36.11227024 46.69644281 -36.37084961 34.52832031 C-36.34196655 33.43148926 -36.34196655 33.43148926 -36.3125 32.3125 C-36.30033447 31.53616211 -36.28816895 30.75982422 -36.27563477 29.95996094 C-35.89449545 21.33993493 -32.65177 14.80885858 -26.375 8.875 C-18.18156449 2.5653231 -10.13887219 0.05886138 0 0 Z " fill="#171717" transform="translate(948.625,290.75)"/>
<path d="M0 0 C8.06517967 7.37197414 12.12430894 15.4002573 13.36328125 26.16015625 C13.50700614 29.66860289 13.51111817 33.17357529 13.51045227 36.68463135 C13.51412896 37.73232405 13.51780565 38.78001676 13.52159375 39.85945773 C13.5325907 43.36366694 13.53646761 46.86784646 13.5402832 50.37207031 C13.54655073 52.88724358 13.55319779 55.40241594 13.56019592 57.91758728 C13.5793867 65.45798002 13.59001697 72.99836752 13.59892371 80.53877842 C13.60331468 84.09476948 13.60867922 87.65075907 13.61391258 91.20674896 C13.63091561 103.0348492 13.64540977 114.86294854 13.65266132 126.69105911 C13.65457101 129.75611624 13.65649138 132.82117337 13.65844727 135.88623047 C13.65893101 136.64797454 13.65941475 137.40971861 13.65991315 138.19454584 C13.66821374 150.53454827 13.69355528 162.87445379 13.72602794 175.21441391 C13.75913433 187.89907977 13.77711314 200.5836964 13.78030556 213.26840568 C13.78246688 220.3842418 13.79116043 227.4999364 13.81676674 234.61573029 C13.8408024 241.31018791 13.84427711 248.00434725 13.83400536 254.69885445 C13.83351014 257.15178588 13.83982623 259.60472988 13.8535614 262.05762291 C13.87130343 265.41463397 13.86416197 268.7707341 13.85102844 272.12774658 C13.86199769 273.0909042 13.87296693 274.05406182 13.88426858 275.04640603 C13.78064912 286.06922668 9.97341301 295.19208374 2.36328125 303.16015625 C-4.65722289 309.69900418 -12.50594579 313.33736509 -22.13671875 313.59765625 C-32.91505351 313.20548679 -42.00510118 309.96984869 -49.61328125 302.12109375 C-56.71575539 293.56790148 -59.24367635 285.00310067 -59.14465332 274.00244141 C-59.15089328 272.92289499 -59.15713325 271.84334858 -59.1635623 270.73108864 C-59.17943516 267.13690558 -59.16690984 263.54340607 -59.15429688 259.94921875 C-59.1597205 257.36301276 -59.1668445 254.77680986 -59.17553711 252.19061279 C-59.19327194 245.90933803 -59.18950497 239.62825505 -59.17788655 233.34697294 C-59.16883256 228.23953911 -59.16763669 223.13215881 -59.17198181 218.02471924 C-59.17259474 217.296266 -59.17320768 216.56781276 -59.17383918 215.81728518 C-59.17511815 214.33718982 -59.17641501 212.85709447 -59.17772955 211.37699914 C-59.18912059 197.51619254 -59.17604488 183.65549197 -59.15452808 169.79470277 C-59.13665842 157.91581648 -59.13976294 146.03708659 -59.15820312 134.15820312 C-59.17963599 120.34512192 -59.18802209 106.53213352 -59.17575407 92.71903801 C-59.17447995 91.24455644 -59.17322246 89.77007486 -59.17198181 88.29559326 C-59.17136471 87.57022515 -59.17074761 86.84485704 -59.17011181 86.09750807 C-59.16666614 80.99949189 -59.17247029 75.90153485 -59.18190002 70.80352783 C-59.19432607 63.93500253 -59.18540908 57.06677671 -59.162323 50.19828033 C-59.15704274 47.68043761 -59.15853791 45.16257 -59.16737366 42.64473724 C-59.17833912 39.20211582 -59.16455192 35.76043307 -59.14465332 32.31787109 C-59.15357621 31.32661036 -59.16249909 30.33534962 -59.17169237 29.31405067 C-59.04679272 18.13808999 -54.68961305 9.44585417 -47.01171875 1.47265625 C-33.62743254 -10.92020135 -14.31987026 -10.75703173 0 0 Z " fill="#171717" transform="translate(825.63671875,299.83984375)"/>
<path d="M0 0 C6.49993713 4.58932046 11.42945696 12.14728482 13 20 C14.07410784 29.82882247 12.3493532 38.53060346 6.0925293 46.39868164 C0.4513409 52.51537744 -5.33750531 58.45788364 -11.25 64.3125 C-12.12140625 65.17939453 -12.9928125 66.04628906 -13.890625 66.93945312 C-17.17449993 70.20580738 -20.46174383 73.46860545 -23.7578125 76.72265625 C-25.90588699 78.90441135 -27.98184673 81.14129679 -30.0456543 83.40258789 C-37.16617113 91.16812294 -44.50418975 98.73315472 -51.89691162 106.23895264 C-53.07859064 107.44238258 -54.25582575 108.65019438 -55.42828369 109.86260986 C-65.63559437 120.40309578 -75.75288988 128.71386579 -91.0625 129.25 C-100.31528434 128.66252163 -108.7992729 125.71634937 -115.3125 118.875 C-121.18297756 111.32023501 -123.10131714 102.38159043 -122 93 C-120.00196034 81.87042369 -113.58864334 75.31947456 -105.66015625 67.6875 C-103.66891204 65.67578779 -101.85074286 63.67641499 -100.02392578 61.52612305 C-95.73340173 56.604419 -91.12629166 52.01252986 -86.49274635 47.41758156 C-84.92179876 45.85958931 -83.35416483 44.29832659 -81.78727722 42.73625183 C-78.46518268 39.42548369 -75.13913808 36.11870197 -71.8125 32.8125 C-67.94303865 28.96672723 -64.07526153 25.11929052 -60.21167564 21.26761436 C-58.67383337 19.73621069 -57.13299211 18.20787001 -55.59199524 16.67964172 C-54.64427076 15.73555157 -53.6966874 14.79131972 -52.74926758 13.84692383 C-51.92654861 13.02944168 -51.10382965 12.21195953 -50.25617981 11.3697052 C-47.94368593 9.00925295 -47.94368593 9.00925295 -45.8445282 6.30302429 C-34.83128541 -7.44779052 -14.27981215 -7.97989503 0 0 Z " fill="#FC500A" transform="translate(1233,273)"/>
<path d="M0 0 C2.97 0 5.94 0 9 0 C10.83979221 3.6217573 12.67072866 7.24791898 14.5 10.875 C15.02464844 11.90753906 15.54929687 12.94007813 16.08984375 14.00390625 C16.58613281 14.99003906 17.08242187 15.97617187 17.59375 16.9921875 C18.05458984 17.90339355 18.51542969 18.81459961 18.99023438 19.75341797 C20 22 20 22 20 24 C20.66 24 21.32 24 22 24 C22.23460937 23.20335937 22.46921875 22.40671875 22.7109375 21.5859375 C24.33483055 17.06856229 26.44537895 12.89569499 28.625 8.625 C29.25535156 7.37783203 29.25535156 7.37783203 29.8984375 6.10546875 C30.92864639 4.06846481 31.96382401 2.0339751 33 0 C35.97 0 38.94 0 42 0 C42 13.53 42 27.06 42 41 C39.36 41 36.72 41 34 41 C33.67 33.08 33.34 25.16 33 17 C30.40985181 22.54857399 30.40985181 22.54857399 27.82446289 28.09936523 C27.5021167 28.78716064 27.17977051 29.47495605 26.84765625 30.18359375 C26.51773682 30.89056396 26.18781738 31.59753418 25.84790039 32.32592773 C25 34 25 34 24 35 C22.00041636 35.04080783 19.99954746 35.04254356 18 35 C14.66666667 28.33333333 11.33333333 21.66666667 8 15 C7.67 23.58 7.34 32.16 7 41 C4.69 41 2.38 41 0 41 C0 27.47 0 13.94 0 0 Z " fill="#191919" transform="translate(1150,672)"/>
<path d="M0 0 C9 0 9 0 11.13574219 1.54125977 C11.60141602 2.25080811 12.06708984 2.96035645 12.546875 3.69140625 C13.08183594 4.47193359 13.61679687 5.25246094 14.16796875 6.05664062 C14.69003906 6.88357422 15.21210937 7.71050781 15.75 8.5625 C16.28753906 9.36236328 16.82507813 10.16222656 17.37890625 10.98632812 C18.43692886 12.56306498 19.48223199 14.14842275 20.51367188 15.74267578 C21.91297034 17.86782584 23.38087628 19.91733995 24.890625 21.96484375 C27 25 27 25 27 27 C27.66 27 28.32 27 29 27 C29 18.09 29 9.18 29 0 C31.64 0 34.28 0 37 0 C37 13.53 37 27.06 37 41 C29 41 29 41 26.88598633 39.45874023 C26.37318115 38.74919189 25.86037598 38.03964355 25.33203125 37.30859375 C24.74873047 36.52806641 24.16542969 35.74753906 23.56445312 34.94335938 C22.98630859 34.11642578 22.40816406 33.28949219 21.8125 32.4375 C21.22275391 31.63763672 20.63300781 30.83777344 20.02539062 30.01367188 C18.32307648 27.69405583 16.66114553 25.34918195 15 23 C14.49259277 22.31309082 13.98518555 21.62618164 13.46240234 20.91845703 C10 16.22113524 10 16.22113524 10 14 C9.34 14 8.68 14 8 14 C8 22.91 8 31.82 8 41 C5.36 41 2.72 41 0 41 C0 27.47 0 13.94 0 0 Z " fill="#1C1C1C" transform="translate(547,672)"/>
<path d="M0 0 C3.3 0 6.6 0 10 0 C10.34256836 0.86165771 10.68513672 1.72331543 11.03808594 2.61108398 C12.32636563 5.84896318 13.61626788 9.08618653 14.90722656 12.32299805 C15.462552 13.71629864 16.01725479 15.10984759 16.57128906 16.50366211 C20.3299361 25.98889814 20.3299361 25.98889814 24.390625 35.34765625 C26 39 26 39 26 41 C23.03 41 20.06 41 17 41 C16.01 38.03 15.02 35.06 14 32 C8.06 32.33 2.12 32.66 -4 33 C-4.99 35.64 -5.98 38.28 -7 41 C-9.97 41 -12.94 41 -16 41 C-13.27524223 32.27487313 -9.7776965 23.88735601 -6.3125 15.4375 C-5.6996065 13.93695647 -5.08697412 12.43630626 -4.47460938 10.93554688 C-2.98608128 7.28912737 -1.49402412 3.64417091 0 0 Z " fill="#191919" transform="translate(727,672)"/>
<path d="M0 0 C2.64 0 5.28 0 8 0 C8 5.28 8 10.56 8 16 C14.6 16 21.2 16 28 16 C28 10.72 28 5.44 28 0 C30.64 0 33.28 0 36 0 C36 13.53 36 27.06 36 41 C33.36 41 30.72 41 28 41 C28 35.06 28 29.12 28 23 C21.4 23 14.8 23 8 23 C8 28.94 8 34.88 8 41 C5.36 41 2.72 41 0 41 C0 27.47 0 13.94 0 0 Z " fill="#1B1B1B" transform="translate(482,672)"/>
<path d="M0 0 C9.57 0 19.14 0 29 0 C29 2.31 29 4.62 29 7 C22.07 7 15.14 7 8 7 C8 9.97 8 12.94 8 16 C9.28777344 15.98839844 10.57554688 15.97679687 11.90234375 15.96484375 C13.58072772 15.9554673 15.25911326 15.94636695 16.9375 15.9375 C18.21270508 15.92493164 18.21270508 15.92493164 19.51367188 15.91210938 C20.32255859 15.90888672 21.13144531 15.90566406 21.96484375 15.90234375 C22.7137085 15.89710693 23.46257324 15.89187012 24.23413086 15.88647461 C26 16 26 16 27 17 C27 19.31 27 21.62 27 24 C20.73 24 14.46 24 8 24 C8 27.3 8 30.6 8 34 C14.93 34 21.86 34 29 34 C29 36.31 29 38.62 29 41 C19.43 41 9.86 41 0 41 C0 27.47 0 13.94 0 0 Z " fill="#1F1F1F" transform="translate(1093,672)"/>
<path d="M0 0 C5.23004391 3.04772343 5.23004391 3.04772343 6.2578125 6.1875 C6.35320313 6.79078125 6.44859375 7.3940625 6.546875 8.015625 C2.796875 11.015625 2.796875 11.015625 0.546875 11.015625 C-0.453125 10.015625 -1.453125 9.015625 -2.453125 8.015625 C-5.97372068 6.84209311 -8.759618 6.81416098 -12.453125 7.015625 C-13.113125 7.675625 -13.773125 8.335625 -14.453125 9.015625 C-14.453125 10.335625 -14.453125 11.655625 -14.453125 13.015625 C-13.20015625 13.39074219 -11.9471875 13.76585937 -10.65625 14.15234375 C-9.00493007 14.66838123 -7.35390341 15.18535784 -5.703125 15.703125 C-4.878125 15.94740234 -4.053125 16.19167969 -3.203125 16.44335938 C1.72948757 18.01463515 4.90482446 19.27839997 7.546875 24.015625 C8.52980669 28.64118589 8.19468051 32.74700588 6.046875 36.953125 C1.20277733 40.94950558 -4.17097531 42.57607243 -10.4375 42.3046875 C-15.23800112 41.61624354 -19.15711066 39.99553828 -23.015625 37.078125 C-24.453125 35.015625 -24.453125 35.015625 -24.515625 32.890625 C-23.02371888 30.2578495 -21.27174863 29.88289381 -18.453125 29.015625 C-17.855 29.655 -17.256875 30.294375 -16.640625 30.953125 C-13.73466468 33.69303045 -11.98929826 33.99612779 -8.015625 34.140625 C-5.23906744 34.04320193 -3.06834377 33.85249501 -0.453125 33.015625 C-0.11886765 30.64187639 -0.11886765 30.64187639 -0.453125 28.015625 C-3.46594692 25.12417268 -6.29578099 24.43067713 -10.328125 23.640625 C-15.71733793 22.39696048 -18.6593722 21.01444551 -22.453125 17.015625 C-24.05842677 13.80502147 -23.9286807 10.49856819 -23.453125 7.015625 C-18.64728524 -1.30217458 -8.68399063 -3.48465866 0 0 Z " fill="#1B1B1B" transform="translate(887.453125,671.984375)"/>
<path d="M0 0 C3.004407 1.45040338 5.28375495 2.7954737 7.65234375 5.1640625 C7.52734375 7.1640625 7.52734375 7.1640625 6.65234375 9.1640625 C4.58984375 10.4140625 4.58984375 10.4140625 2.65234375 11.1640625 C2.21921875 10.6896875 1.78609375 10.2153125 1.33984375 9.7265625 C-2.10554686 6.53638601 -5.89487355 7.00214313 -10.34765625 7.1640625 C-11.33765625 7.6590625 -11.33765625 7.6590625 -12.34765625 8.1640625 C-12.34765625 9.8140625 -12.34765625 11.4640625 -12.34765625 13.1640625 C-11.19265625 13.5971875 -10.03765625 14.0303125 -8.84765625 14.4765625 C-7.75517578 14.89035156 -7.75517578 14.89035156 -6.640625 15.3125 C-5.17121733 15.85820847 -3.69495716 16.38600406 -2.2109375 16.890625 C5.87651349 19.69427468 5.87651349 19.69427468 8.65234375 23.1640625 C9.53182338 28.1996671 9.45246156 32.56382689 7.15234375 37.1640625 C1.86563368 41.39343056 -3.5934902 42.7780776 -10.34765625 42.1640625 C-15.32809795 41.13362629 -18.72432806 39.78739069 -22.34765625 36.1640625 C-23.16015625 33.9140625 -23.16015625 33.9140625 -23.34765625 32.1640625 C-18.59765625 29.1640625 -18.59765625 29.1640625 -16.34765625 29.1640625 C-15.64640625 29.9890625 -14.94515625 30.8140625 -14.22265625 31.6640625 C-11.26727513 34.23395912 -10.9059287 34.52557731 -7.28515625 34.5390625 C-3.24207126 34.16062274 -3.24207126 34.16062274 0.65234375 33.1640625 C1.07015254 30.79100672 1.07015254 30.79100672 0.65234375 28.1640625 C-3.88113009 24.83951502 -8.93484433 23.75407355 -14.2890625 22.32421875 C-17.61412133 21.06298954 -19.18714303 19.96661502 -21.34765625 17.1640625 C-22.6748815 13.10986078 -22.77402773 9.36323228 -21.34765625 5.3515625 C-15.52712246 -1.01464634 -8.1890228 -2.91589165 0 0 Z " fill="#1B1B1B" transform="translate(1241.34765625,671.8359375)"/>
<path d="M0 0 C2.7440655 1.54353685 3.4378658 2.19858729 5 5.0625 C5.2475 6.17625 5.2475 6.17625 5.5 7.3125 C3.52 8.3025 1.54 9.2925 -0.5 10.3125 C-0.933125 9.838125 -1.36625 9.36375 -1.8125 8.875 C-4.43931586 6.4427631 -6.52653965 6.31110318 -10.0625 6.125 C-13.56498936 5.93245935 -13.56498936 5.93245935 -15.5 8.3125 C-15.5 9.6325 -15.5 10.9525 -15.5 12.3125 C-13.98019531 12.78429687 -13.98019531 12.78429687 -12.4296875 13.265625 C-11.07796765 13.6974244 -9.72641386 14.12974388 -8.375 14.5625 C-7.70984375 14.76746094 -7.0446875 14.97242188 -6.359375 15.18359375 C-1.89271456 16.62868977 1.71955178 18.43981898 5.5 21.3125 C7.23723196 24.78696393 6.95968351 28.51372657 6.5 32.3125 C4.83153215 35.7112308 3.69891861 37.6872575 0.3203125 39.44921875 C-3.18358586 40.52174165 -6.27468931 40.65061369 -9.9375 40.6875 C-11.21496094 40.71585938 -12.49242187 40.74421875 -13.80859375 40.7734375 C-18.93243617 40.13363495 -21.90817499 37.90432501 -25.5 34.3125 C-25.4375 32.3125 -25.4375 32.3125 -24.5 30.3125 C-21.9375 29.0625 -21.9375 29.0625 -19.5 28.3125 C-18.88125 28.951875 -18.2625 29.59125 -17.625 30.25 C-14.83724206 32.95576506 -14.06177951 33.28129003 -10.125 33.5 C-6.82932477 33.32953404 -5.2163171 33.05094294 -2.5 31.3125 C-2.5 29.6625 -2.5 28.0125 -2.5 26.3125 C-3.04527344 26.14234375 -3.59054687 25.9721875 -4.15234375 25.796875 C-21.39302391 20.25628035 -21.39302391 20.25628035 -24.5 14.3125 C-25.31417141 10.09594914 -25.03366293 7.23614737 -22.875 3.5 C-16.25226042 -2.59989172 -8.21016837 -3.6721844 0 0 Z " fill="#1B1B1B" transform="translate(1003.5,672.6875)"/>
<path d="M0 0 C2.95647094 1.71196058 5.41042408 3.55990511 7.5625 6.25 C7.5625 6.91 7.5625 7.57 7.5625 8.25 C5.3125 10 5.3125 10 2.5625 11.25 C0.4375 10.5625 0.4375 10.5625 -1.4375 9.25 C-5.87774967 6.28983356 -10.23031459 6.47348989 -15.4375 7.25 C-18.58972575 9.47990529 -18.58972575 9.47990529 -20.4375 12.25 C-20.7675 12.58 -21.0975 12.91 -21.4375 13.25 C-21.98388828 19.41788311 -22.19850181 25.06241129 -18.4375 30.25 C-16.07889602 32.40049186 -14.48838258 33.20414331 -11.2890625 33.34375 C-7.18028845 33.07074176 -5.00662552 32.7132417 -1.75 30.0625 C-0.986875 29.464375 -0.22375 28.86625 0.5625 28.25 C3.875 29 3.875 29 6.5625 30.25 C6.5625 31.57 6.5625 32.89 6.5625 34.25 C1.74607634 39.06642366 -2.3721667 40.99874317 -9.25 41.5625 C-16.17186775 41.31151625 -21.57516325 39.63841444 -26.375 34.5 C-30.52413162 29.23674971 -31.90076283 23.85270053 -31.68359375 17.22265625 C-30.87673607 10.75498758 -27.13276508 5.54566805 -22.4375 1.25 C-15.63503555 -2.88483133 -7.24060693 -3.41767454 0 0 Z " fill="#1D1C1C" transform="translate(447.4375,672.75)"/>
<path d="M0 0 C5.89208573 -0.32230213 10.06861813 0.91076121 14.97265625 4.1875 C17.47265625 6.4375 17.47265625 6.4375 18.97265625 8.1875 C18.64265625 9.1775 18.31265625 10.1675 17.97265625 11.1875 C14.91015625 12.375 14.91015625 12.375 11.97265625 13.1875 C11.56015625 12.73375 11.14765625 12.28 10.72265625 11.8125 C8.27240062 9.53726263 6.167215 8.27084131 2.7890625 8.03515625 C-1.52726393 8.44659118 -3.561843 8.80928064 -7.02734375 11.625 C-10.68938517 16.31699056 -10.54991642 20.37502505 -10.02734375 26.1875 C-8.87322039 29.11548943 -8.87322039 29.11548943 -7.02734375 31.1875 C-6.6096875 31.71859375 -6.19203125 32.2496875 -5.76171875 32.796875 C-3.34098907 34.73782042 -1.65599098 34.55408401 1.41015625 34.5 C2.35761719 34.49613281 3.30507813 34.49226562 4.28125 34.48828125 C7.01198909 34.18310431 8.67507514 33.6686286 10.97265625 32.1875 C11.30265625 31.5275 11.63265625 30.8675 11.97265625 30.1875 C14.34765625 30.4375 14.34765625 30.4375 16.97265625 31.1875 C18.13671875 33.234375 18.13671875 33.234375 18.97265625 35.1875 C13.59907721 40.24311578 9.65376271 42.89063658 2.09765625 43.5 C-5.25354321 43.27553589 -10.8972523 40.31759145 -16.02734375 35.1875 C-20.09445077 28.46075736 -19.88897458 21.83549941 -19.02734375 14.1875 C-16.97278963 8.16080791 -12.56209516 4.14794843 -7.02734375 1.1875 C-4.62276774 0.36488189 -2.51175308 0.23230086 0 0 Z " fill="#1C1C1C" transform="translate(668.02734375,670.8125)"/>
<path d="M0 0 C9.24 0 18.48 0 28 0 C28 2.31 28 4.62 28 7 C21.07 7 14.14 7 7 7 C7 10.3 7 13.6 7 17 C13.27 17 19.54 17 26 17 C26 18.98 26 20.96 26 23 C19.73 23 13.46 23 7 23 C7 26.63 7 30.26 7 34 C13.93 34 20.86 34 28 34 C28 36.31 28 38.62 28 41 C18.76 41 9.52 41 0 41 C0 27.47 0 13.94 0 0 Z " fill="#161616" transform="translate(362,672)"/>
<path d="M0 0 C2.97 0 5.94 0 9 0 C9.62648438 1.14339844 10.25296875 2.28679688 10.8984375 3.46484375 C11.72366998 4.9558888 12.54920658 6.44676555 13.375 7.9375 C13.7875 8.69224609 14.2 9.44699219 14.625 10.22460938 C15.02460937 10.94326172 15.42421875 11.66191406 15.8359375 12.40234375 C16.38580322 13.39995728 16.38580322 13.39995728 16.94677734 14.41772461 C17.9231556 16.16856006 17.9231556 16.16856006 20 17 C20.26683594 16.30519531 20.53367187 15.61039063 20.80859375 14.89453125 C22.99832286 9.57456644 25.29001646 4.43947469 29 0 C32.21357272 -1.01508091 34.75289367 -0.79520971 38 0 C34.01218023 8.47181988 29.18711087 16.2193337 24 24 C23.6373883 25.92744369 23.6373883 25.92744369 23.5859375 28.01171875 C23.54726563 28.76904297 23.50859375 29.52636719 23.46875 30.30664062 C23.42234375 31.48516602 23.42234375 31.48516602 23.375 32.6875 C23.33632813 33.48478516 23.29765625 34.28207031 23.2578125 35.10351562 C23.16367506 37.06863475 23.08075368 39.0342854 23 41 C20.36 41 17.72 41 15 41 C15.09023438 40.11183594 15.18046875 39.22367188 15.2734375 38.30859375 C15.63529512 24.51625131 8.84383221 15.19857397 1.26928711 4.08447266 C0 2 0 2 0 0 Z " fill="#1A1A1A" transform="translate(918,672)"/>
<path d="M0 0 C10.89 0 21.78 0 33 0 C33 2.31 33 4.62 33 7 C29.04 7 25.08 7 21 7 C21 18.22 21 29.44 21 41 C18.36 41 15.72 41 13 41 C13 29.78 13 18.56 13 7 C8.71 7 4.42 7 0 7 C0 4.69 0 2.38 0 0 Z " fill="#1A1A19" transform="translate(1033,672)"/>
<path d="M0 0 C10.89 0 21.78 0 33 0 C33 2.31 33 4.62 33 7 C28.71 7 24.42 7 20 7 C20 18.22 20 29.44 20 41 C17.36 41 14.72 41 12 41 C12 29.78 12 18.56 12 7 C8.04 7 4.08 7 0 7 C0 4.69 0 2.38 0 0 Z " fill="#1B1B1A" transform="translate(302,672)"/>
<path d="M0 0 C2.64 0 5.28 0 8 0 C8 11.22 8 22.44 8 34 C14.27 34 20.54 34 27 34 C27 36.31 27 38.62 27 41 C18.09 41 9.18 41 0 41 C0 27.47 0 13.94 0 0 Z " fill="#202020" transform="translate(779,672)"/>
<path d="M0 0 C2.64 0 5.28 0 8 0 C8 13.53 8 27.06 8 41 C5.36 41 2.72 41 0 41 C0 27.47 0 13.94 0 0 Z " fill="#181817" transform="translate(613,672)"/>
<path d="M0 0 C0 3 0 3 -1.94140625 5.19921875 C-3.23884766 6.43091797 -3.23884766 6.43091797 -4.5625 7.6875 C-7.58970144 10.6218166 -10.53790921 13.52198448 -13.25 16.75 C-18.29983769 22.65964219 -23.94134302 28.03788421 -29.47802734 33.48632812 C-30.77474541 34.77597394 -32.04116712 36.09596539 -33.30078125 37.421875 C-35 39 -35 39 -37 39 C-37.25523438 39.58265625 -37.51046875 40.1653125 -37.7734375 40.765625 C-39.11741087 43.21388223 -40.61810296 44.81743248 -42.625 46.75 C-43.57246094 47.67039062 -43.57246094 47.67039062 -44.5390625 48.609375 C-45.26222656 49.29773438 -45.26222656 49.29773438 -46 50 C-46.66 49.67 -47.32 49.34 -48 49 C-38.36444509 38.15949131 -28.09076924 27.97610527 -17.8125 17.75 C-16.07984365 16.02237054 -14.34741999 14.29450768 -12.61523438 12.56640625 C-8.41283286 8.3749118 -4.20757684 4.18629891 0 0 Z " fill="#FA4E1A" transform="translate(1176,291)"/>
<path d="M0 0 C0.66 0 1.32 0 2 0 C2 12.87 2 25.74 2 39 C3.65 39 5.3 39 7 39 C7 30.75 7 22.5 7 14 C7.33 14 7.66 14 8 14 C8 22.91 8 31.82 8 41 C5.36 41 2.72 41 0 41 C0 27.47 0 13.94 0 0 Z " fill="#232323" transform="translate(547,672)"/>
<path d="M0 0 C0.66 0 1.32 0 2 0 C2.83719383 2.29032311 3.6698929 4.58210957 4.5 6.875 C4.73847656 7.52597656 4.97695313 8.17695312 5.22265625 8.84765625 C7 13.7734375 7 13.7734375 7 16 C2.71 16 -1.58 16 -6 16 C-4.23196827 10.52752083 -2.34565002 5.24978815 0 0 Z " fill="#E0E0E0" transform="translate(731,682)"/>
<path d="M0 0 C0.66 0.66 1.32 1.32 2 2 C-1.63 5.63 -5.26 9.26 -9 13 C-9.66 12.34 -10.32 11.68 -11 11 C-7.37 7.37 -3.74 3.74 0 0 Z " fill="#1F2020" transform="translate(974,502)"/>
<path d="M0 0 C0 3.7185142 -0.85912168 4.31804606 -3.3125 7 C-3.92738281 7.680625 -4.54226563 8.36125 -5.17578125 9.0625 C-6.75544728 10.74026092 -8.35810926 12.38336911 -10 14 C-10.66 13.67 -11.32 13.34 -12 13 C-10.18777319 11.02058257 -8.37523172 9.04145495 -6.5625 7.0625 C-6.04623047 6.49853516 -5.52996094 5.93457031 -4.99804688 5.35351562 C-1.11328125 1.11328125 -1.11328125 1.11328125 0 0 Z " fill="#FB5A2A" transform="translate(1140,327)"/>
<path d="M0 0 C0.66 0.66 1.32 1.32 2 2 C-0.97 5.3 -3.94 8.6 -7 12 C-7.66 11.34 -8.32 10.68 -9 10 C-6.03 6.7 -3.06 3.4 0 0 Z " fill="#1E1E1E" transform="translate(781,299)"/>
<path d="M0 0 C0.33 0.66 0.66 1.32 1 2 C-0.09966775 3.29549899 -1.20491801 4.58626071 -2.3125 5.875 C-2.92738281 6.59429688 -3.54226563 7.31359375 -4.17578125 8.0546875 C-6 10 -6 10 -9 12 C-9 9 -9 9 -7.03125 6.73828125 C-5.77828125 5.53751953 -5.77828125 5.53751953 -4.5 4.3125 C-3.6646875 3.50425781 -2.829375 2.69601562 -1.96875 1.86328125 C-1.3190625 1.24839844 -0.669375 0.63351562 0 0 Z " fill="#2F2F30" transform="translate(932,544)"/>
<path d="M0 0 C0.66 0.66 1.32 1.32 2 2 C-0.97 4.97 -3.94 7.94 -7 11 C-7.66 10.34 -8.32 9.68 -9 9 C-6.03 6.03 -3.06 3.06 0 0 Z " fill="#1E1E1E" transform="translate(958,518)"/>
<path d="M0 0 C0.33 0 0.66 0 1 0 C1 2.97 1 5.94 1 9 C-0.66666667 9 -2.33333333 9 -4 9 C-2.94124926 5.59687262 -1.99097846 2.98646769 0 0 Z " fill="#E8E8E8" transform="translate(1183,688)"/>
<path d="M0 0 C0 4.38968456 -2.12805101 5.76905739 -5 9 C-5.99 8.67 -6.98 8.34 -8 8 C-7.04578192 6.85073734 -6.08647955 5.70569459 -5.125 4.5625 C-4.59132813 3.92441406 -4.05765625 3.28632813 -3.5078125 2.62890625 C-2 1 -2 1 0 0 Z " fill="#242425" transform="translate(925,298)"/>
<path d="M0 0 C0.33 0.66 0.66 1.32 1 2 C-1.47812494 5.45167403 -2.79606135 7.23163306 -7 8 C-6.02133662 6.85373678 -5.04205413 5.70800212 -4.0625 4.5625 C-3.51722656 3.92441406 -2.97195313 3.28632812 -2.41015625 2.62890625 C-1.63204305 1.73008851 -0.84063472 0.84063472 0 0 Z " fill="#242526" transform="translate(940,536)"/>
<path d="M0 0 C2.125 0.375 2.125 0.375 4 1 C-0.75 5.875 -0.75 5.875 -3 7 C-2.25 2.25 -2.25 2.25 0 0 Z " fill="#E1E1E1" transform="translate(990,678)"/>
<path d="M0 0 C-1 3 -1 3 -3 4 C-3.66 4.99 -4.32 5.98 -5 7 C-5.33 5.68 -5.66 4.36 -6 3 C-2.25 0 -2.25 0 0 0 Z " fill="#313030" transform="translate(984,701)"/>
<path d="M0 0 C0.33 0 0.66 0 1 0 C1 1.98 1 3.96 1 6 C-0.98 4.68 -2.96 3.36 -5 2 C-4.360625 1.855625 -3.72125 1.71125 -3.0625 1.5625 C-1.02454854 1.18992819 -1.02454854 1.18992819 0 0 Z " fill="#EFEFF0" transform="translate(613,509)"/>
</svg>
